-
      the fast  and The Hottest Private Tracker on the net

Please Seed back to make the speed Faster!!
 ............ NFO .............
-[URL=http://img708.imageshack.us/i/carryoncampingsmall.jpg/][IMG]http://img708.imageshack.us/img708/5818/carryoncampingsmall.jpg[/IMG][/URL]


MRFIXIT is proud to present:   Carry On Camping
Source:  Carry On Camping Dvd5 Pal - DINGLEDAWN

[URL=http://img204.imageshack.us/i/27867621.png/][IMG]http://img204.imageshack.us/img204/2294/27867621.png[/IMG][/URL]

Complete name                            : C:Carry On Camping-Dvdrip-H264-MRFIXIT.avi
Format                                   : AVI
Format/Info                              : Audio Video Interleave
File size                                : 630 MiB
Duration                                 : 1h 24mn
Overall bit rate                         : 1 038 Kbps
Writing library                          : VirtualDub build 32842/release


[URL=http://img713.imageshack.us/i/32031619.png/][IMG]http://img713.imageshack.us/img713/512/32031619.png[/IMG][/URL]

ID                                       : 0
Format                                   : AVC
Format/Info                              : Advanced Video Codec
Format profile                           : High@L3.0
Format settings, CABAC                   : Yes
Format settings, ReFrames                : 3 frames
Codec ID                                 : H264
Duration                                 : 1h 24mn
Bit rate                                 : 900 Kbps
Width                                    : 720 pixels
Height                                   : 384 pixels
Display aspect ratio                     : 1.85:1
Frame rate                               : 25.000 fps
Color space                              : YUV
Chroma subsampling                       : 4:2:0
Bit depth                                : 8 bits
Scan type                                : Progressive
Bits/(Pixel*Frame)                       : 0.130
Stream size                              : 547 MiB (87%)
Writing library                          : x264 core 130 r2273kMod b3065e6
Encoding settings                        : cabac=1 / ref=3 / deblock=1:0:0 / analyse=0x3:0x13 / me=umh / subme=7 / psy=1 / fade_compensate=0.00 / psy_rd=1.00:0.00 / mixed_ref=1 / me_range=16 / chroma_me=1 / trellis=1 / 8x8dct=1 / cqm=0 / deadzone=21,11 / fast_pskip=1 / chroma_qp_offset=-2 / threads=6 / lookahead_threads=6 / sliced_threads=1 / slices=6 / nr=0 / decimate=1 / interlaced=0 / bluray_compat=0 / constrained_intra=0 / bframes=0 / weightp=2 / keyint=250 / keyint_min=25 / scenecut=40 / intra_refresh=0 / rc=2pass / mbtree=0 / bitrate=900 / ratetol=1.0 / qcomp=0.60 / qpmin=10 / qpmax=51 / qpstep=4 / cplxblur=20.0 / qblur=0.5 / ip_ratio=1.40 / aq=1:1.00

[URL=http://img684.imageshack.us/i/14258198.png/][IMG]http://img684.imageshack.us/img684/6473/14258198.png[/IMG][/URL]

ID                                       : 1
Format                                   : MPEG Audio
Format version                           : Version 1
Format profile                           : Layer 3
Mode                                     : Joint stereo
Mode extension                           : MS Stereo
Codec ID                                 : 55
Codec ID/Hint                            : MP3
Duration                                 : 1h 24mn
Bit rate mode                            : Constant
Bit rate                                 : 128 Kbps
Channel(s)                               : 2 channels
Sampling rate                            : 48.0 KHz
Compression mode                         : Lossy
Stream size                              : 77.7 MiB (12%)
Alignment                                : Split accross interleaves
Interleave, duration                     : 40 ms (1.00 video frame)
Interleave, preload duration             : 500 ms 

[URL=http://img36.imageshack.us/i/19805875.png/][IMG]http://img36.imageshack.us/img36/52/19805875.png[/IMG][/URL]
 
http://www.imdb.co.uk/title/tt0064133/

[URL=http://img225.imageshack.us/i/39945039.png/][IMG]http://img225.imageshack.us/img225/9529/39945039.png[/IMG][/URL]

Sid and Bernie keep having their amorous intentions snubbed by their girlfriends Joan and Anthea. The boys suggest a camping holiday, 
secretly intending to take them to a nudist camp. Of course they end up in the wrong place, and meet up with the weirdest bunch of campers you can imagine! 
Coach loads of sex-starved schoolgirls and bands of hippies all add to the laughs.

[URL=http://img405.imageshack.us/i/70975872.png/][IMG]http://img405.imageshack.us/img405/6001/70975872.png[/IMG][/URL]

Sid James
Charles Hawtrey
Joan Sims
Kenneth Williams
Terry Scott
Barbara Windsor
Hattie Jacques
Bernard Bresslaw
Julian Holloway
Dilys Laye
Peter Butterworth
Betty Marsden
Trisha Noble
Brian Oulton
Derek Francis

[URL=http://img819.imageshack.us/i/94723758.png/][IMG]http://img819.imageshack.us/img819/9863/94723758.png[/IMG][/URL]

[URL=http://img687.imageshack.us/i/40131439.jpg/][IMG]http://img687.imageshack.us/img687/5441/40131439.jpg[/IMG][/URL]
[URL=http://img46.imageshack.us/i/29008928.jpg/][IMG]http://img46.imageshack.us/img46/6194/29008928.jpg[/IMG][/URL]
[URL=http://img268.imageshack.us/i/22478305.jpg/][IMG]http://img268.imageshack.us/img268/9239/22478305.jpg[/IMG][/URL]
[URL=http://img820.imageshack.us/i/62653027.jpg/][IMG]http://img820.imageshack.us/img820/5936/62653027.jpg[/IMG][/URL]
[URL=http://img703.imageshack.us/i/91775769.jpg/][IMG]http://img703.imageshack.us/img703/9250/91775769.jpg[/IMG][/URL]
[URL=http://img822.imageshack.us/i/92408194.jpg/][IMG]http://img822.imageshack.us/img822/9212/92408194.jpg[/IMG][/URL]

[URL=http://img834.imageshack.us/i/greets3.png/][IMG]http://img834.imageshack.us/img834/3478/greets3.png[/IMG][/URL]

voltage, DQ1, LEGION, PRESTiGE, 26k, RemixHD, UNiQUE, Legend-Rg, DiNGiE, Relentle$$,
Bigguy, paranoid53, HIVE-CM8, TRINITY, Rx, INSPiRAL, HOPE, tommiecook, Wayne, Seedling, Quagmire